# xmcd CD database file generated by Grip 2.7
# 
# Track frame offsets:
#       150
#       22895
#       35798
#       63186
#       75905
#       95822
#       118798
#       140283
#       168274
#       194358
#       213660
#       241843
#       264515
#       278072
#       290979
#       321190
# 
# Disc length: 4462 seconds
# 
# Revision: 3
# Processed by: cddbd v1.4b41PL1 Copyright (c) Steve Scherf et al.
# Submitted via: Grip 2.7
# 
DISCID=e9116c10
DTITLE=Various Artist - Goths' Paradise II The Black Book compilation CD2
DYEAR=1900
DGENRE=
TTITLE0=Avalist - Without Reason
TTITLE1=Mediaeval Babes - Erthe Upon Erthe
TTITLE2=The New Creatures - Faith
TTITLE3=The Crack Of Doom - METAchrome
TTITLE4=Hagalaz Runedance - A Tale of Fate (Foltsvang Awaits)
TTITLE5=Clan of Xymox - Creature
TTITLE6=Ikon - In Too Deep
TTITLE7=Non Compos Mentis - Profound Protection (Demo Version)
TTITLE8=Illuminate - Nur für dich (Hammerwerk Mix)
TTITLE9=Fiction 8 - Isolation
TTITLE10=Die Verbannten Kinder Eva's - Waters Of Wide Agony
TTITLE11=Attrition - Atomizer (Custom Mother)
TTITLE12=Gitane Demone - Living On Velvet
TTITLE13=Die Form - Serial Clones
TTITLE14=Black Tape For A Blue Girl - Russia
TTITLE15=Septic Flesh - Tartarus
EXTD=entered: mail@martin-sander.de
EXTT0=
EXTT1=
EXTT2=
EXTT3=
EXTT4=
EXTT5=
EXTT6=
EXTT7=
EXTT8=
EXTT9=
EXTT10=
EXTT11=
EXTT12=
EXTT13=
EXTT14=
EXTT15=
PLAYORDER=
